{
  "title": "The Shallows (2016) HQ 1080p Blu-ray x264 DTS-HD 5.1 MSubs -DDR",
  "uid": 15821961,
  "size": 9125889503,
  "categoryP": "video",
  "categoryS": "hd___movies",
  "magnet": "?xt=urn:btih:eb5d629b780f34b2100fa838e1cffe582261b265&amp;dn=The+Shallows+%282016%29+HQ+1080p+Blu-ray+x264+DTS-HD+5.1+MSubs+-DDR&amp;tr=udp%3A%2F%2Ftracker.leechers-paradise.org%3A6969&amp;tr=udp%3A%2F%2Fzer0day.ch%3A1337&amp;tr=udp%3A%2F%2Fopen.demonii.com%3A1337&amp;tr=udp%3A%2F%2Ftracker.coppersurfer.tk%3A6969&amp;tr=udp%3A%2F%2Fexodus.desync.com%3A6969",
  "seeders": 141,
  "leechers": 92,
  "uploader": "SaM",
  "files": 3,
  "time": 1473781180,
  "description": "HQ 1080p Blu-ray Rip x264\r\n\r\n\r\n\r\nEnglsih DTS-HD MA 5.1 Audio\r\n\r\n\r\n\r\n\r\nEnglish, &amp; Spanish + SDH + Forced Subtitles \r\n \nhttp://extraimago.com/image/wIEu \nhttp://extraimago.com/image/wIEV \nhttp://extraimago.com/image/wIE6 \nhttp://extraimago.com/image/wIEx \nhttp://extraimago.com/image/wIEt \nhttp://extraimago.com/image/wIEo \nhttp://extraimago.com/image/wIEk \nhttp://extraimago.com/image/wIEH \nhttp://extraimago.com/image/wIEF \nhttp://extraimago.com/image/wIED \nhttp://extraimago.com/image/wIE5 \nhttp://extraimago.com/image/wIEg \nhttp://extraimago.com/image/wIEX \nhttp://extraimago.com/image/wIEP \nhttp://extraimago.com/image/wIEG \nhttp://extraimago.com/image/wIEr \nhttp://extraimago.com/image/wIEp\r\n\r\nSpecs:\r\nSource: BD50 @ HDC\r\n\r\nFormat : Matroska\r\nFile size : 8.34 GiB\r\nDuration : 1 h 26 min\r\nOverall bit rate : 13.8 Mb/s\r\n\r\nVideo\r\nFormat : AVC\r\nFormat/Info : Advanced Video Codec\r\nFormat profile :   \r\nFormat settings, CABAC : Yes\r\nFormat settings, ReFrames : 5 frames\r\nCodec ID : V_MPEG4/ISO/AVC\r\nDuration : 1 h 26 min\r\nBit rate : 10 000 kb/s\r\nWidth : 1 920 pixels\r\nHeight : 800 pixels\r\nDisplay aspect ratio : 2.40:1\r\nFrame rate mode : Constant\r\nFrame rate : 23.976 (24000/1001) FPS\r\nColor space : YUV\r\nChroma subsampling : 4:2:0\r\nBit depth : 8 bits\r\nScan type : Progressive\r\nBits/(Pixel*Frame) : 0.272\r\nStream size : 6.00 GiB (72%)\r\n\r\nAudio #1\r\nFormat : DTS\r\nFormat/Info : Digital Theater Systems\r\nFormat profile : MA / Core\r\nMode : 16\r\nFormat settings, Endianness : Big\r\nCodec ID : A_DTS\r\nDuration : 1 h 26 min\r\nBit rate mode : Variable / Constant\r\nBit rate : 3 840 kb/s / 1 509 kb/s\r\nChannel(s) : 6 channels\r\nChannel positions : Front: L C R, Side: L R, LFE\r\nSampling rate : 48.0 kHz\r\nFrame rate : 93.750 FPS (512 spf)\r\nBit depth : 24 bits\r\nCompression mode : Lossless / Lossy\r\nStream size : 2.33 GiB (28%)\r\nLanguage : English\r\nDefault : Yes\r\nForced : No\r\n\r\n\r\nChapters = YES\r\n\r\nSAMPLE Included",
  "parsed": {
    "xt": "urn:btih:eb5d629b780f34b2100fa838e1cffe582261b265",
    "dn": "The Shallows (2016) HQ 1080p Blu-ray x264 DTS-HD 5.1 MSubs -DDR",
    "tr": [
      "udp://exodus.desync.com:6969",
      "udp://open.demonii.com:1337",
      "udp://tracker.coppersurfer.tk:6969",
      "udp://tracker.leechers-paradise.org:6969",
      "udp://zer0day.ch:1337"
    ],
    "infoHash": "eb5d629b780f34b2100fa838e1cffe582261b265",
    "infoHashBuffer": {
      "type": "Buffer",
      "data": [
        235,
        93,
        98,
        155,
        120,
        15,
        52,
        178,
        16,
        15,
        168,
        56,
        225,
        207,
        254,
        88,
        34,
        97,
        178,
        101
      ]
    },
    "name": "The Shallows (2016) HQ 1080p Blu-ray x264 DTS-HD 5.1 MSubs -DDR",
    "announce": [
      "udp://exodus.desync.com:6969",
      "udp://open.demonii.com:1337",
      "udp://tracker.coppersurfer.tk:6969",
      "udp://tracker.leechers-paradise.org:6969",
      "udp://zer0day.ch:1337"
    ],
    "urlList": []
  },
  "previous": 233,
  "peers": 89,
  "last_updated": "2016-12-25T17:12:57.127Z"
}